<svg xmlns="http://www.w3.org/2000/svg" xmlns:xlink="http://www.w3.org/1999/xlink" viewBox="0 0 109.94 109.94"><defs><style>.cls-1{isolation:isolate;}.cls-2{fill:url(#未命名的渐变_125);}.cls-3{mix-blend-mode:multiply;opacity:0.75;}.cls-4{fill:#040000;}.cls-5{fill:#fff;}.cls-6{fill:#231815;}</style><linearGradient id="未命名的渐变_125" x1="107.8" y1="107.8" x2="2.14" y2="2.14" gradientUnits="userSpaceOnUse"><stop offset="0.13" stop-color="#3aa0db"/><stop offset="0.31" stop-color="#5893c6"/><stop offset="0.69" stop-color="#a47390"/><stop offset="1" stop-color="#e75661"/></linearGradient></defs><g class="cls-1"><g id="图层_1" data-name="图层 1"><rect class="cls-2" width="109.94" height="109.94" rx="7.3"/><g class="cls-3"><rect class="cls-4" x="13.47" y="13.47" width="89" height="89" rx="18.25"/></g><rect class="cls-5" x="10.47" y="10.47" width="89" height="89" rx="18.25"/><path class="cls-6" d="M58,57.69l-.54,1a22.32,22.32,0,0,0-2.17,15.17,14.65,14.65,0,0,0,7.94,10.52q4.95,2.44,13,.89a1.74,1.74,0,0,1,.83,0c.44.18.54.53.28,1-.45.9-2.14,1.66-5.08,2.26A22.28,22.28,0,0,1,57.51,87a17.8,17.8,0,0,1-9.62-11.77,22.43,22.43,0,0,1,1.88-16.39,22.65,22.65,0,0,1,12-11.23q8.11-3.36,15,.09a15.84,15.84,0,0,1,9,12.31A25.46,25.46,0,0,1,86,65.27a12.87,12.87,0,0,1-.68,4.24q-.75,1.5-3.7,0l-3.34-1.71-3-1.62Zm1.51-2.36L74.91,63q3.59,1.77,4.3.32a10.2,10.2,0,0,0,.2-8.09,10.42,10.42,0,0,0-5.14-6.34,8.63,8.63,0,0,0-7.66-.1A16.91,16.91,0,0,0,59.53,55.33Z"/><path class="cls-6" d="M51.92,52.25l.54-1A22.32,22.32,0,0,0,54.63,36.1a14.65,14.65,0,0,0-7.94-10.52q-4.95-2.45-13-.89a1.78,1.78,0,0,1-.84,0c-.44-.18-.53-.53-.28-1q.67-1.35,5.08-2.26A22.28,22.28,0,0,1,52.43,23a17.8,17.8,0,0,1,9.62,11.77,22.43,22.43,0,0,1-1.88,16.39,22.65,22.65,0,0,1-12,11.23q-8.11,3.36-15-.09a15.85,15.85,0,0,1-9-12.31A25.46,25.46,0,0,1,24,44.67a12.52,12.52,0,0,1,.69-4.24q.73-1.5,3.69,0l3.34,1.71,3.05,1.62Zm-1.51,2.36L35,47c-2.38-1.18-3.82-1.29-4.3-.32a10.24,10.24,0,0,0-.2,8.09,10.42,10.42,0,0,0,5.14,6.34,8.63,8.63,0,0,0,7.66.1A16.91,16.91,0,0,0,50.41,54.61Z"/></g></g></svg>